<svg xmlns="http://www.w3.org/2000/svg" width="113.793" height="128.017" viewBox="0 0 536 603">
  <defs>
    <style>
      .cls-1 {
        fill-rule: evenodd;
      }
    </style>
  </defs>
  <path id="形状_5" data-name="形状 5" class="cls-1" d="M345.5,167C426.41,167,492,231.7,492,311.5S426.41,456,345.5,456,199,391.305,199,311.5,264.59,167,345.5,167ZM169.5,48A59.5,59.5,0,1,1,110,107.5,59.5,59.5,0,0,1,169.5,48ZM104,276a49,49,0,1,1-49,49A49,49,0,0,1,104,276ZM252.5,489A72.5,72.5,0,1,1,180,561.5,72.5,72.5,0,0,1,252.5,489Zm223-458A42.5,42.5,0,1,1,433,73.5,42.5,42.5,0,0,1,475.5,31Zm58,394A57.5,57.5,0,1,1,476,482.5,57.5,57.5,0,0,1,533.5,425ZM201.573,154.422l10.854-8.844,44,54-10.854,8.844ZM152.146,329l-0.292-14,48-1,0.292,14ZM284.313,498.025l-12.626-6.05,23-48,12.626,6.05Zm213.759-56.849-10.144,9.648-39-41,10.144-9.648ZM447.908,104.553l12.184,6.894-43,76-12.184-6.894Z" transform="translate(-55 -31)"/>
</svg>
